<svg xmlns="http://www.w3.org/2000/svg" viewBox="0 0 512 512" fill="none">
  <rect width="512" height="512" rx="64" fill="url(#gradient)"/>
  <path d="M256 128c-35.3 0-64 28.7-64 64v128c0 70.7 57.3 128 128 128h64c35.3 0 64-28.7 64-64V256c0-70.7-57.3-128-128-128H256z" fill="white" opacity="0.9"/>
  <path d="M200 180c0-22.1 17.9-40 40-40h32c44.2 0 80 35.8 80 80v152c0 22.1-17.9 40-40 40h-32c-44.2 0-80-35.8-80-80V180z" fill="url(#gradient2)"/>
  <text x="256" y="290" font-family="Arial, sans-serif" font-size="120" font-weight="bold" text-anchor="middle" fill="white">SD</text>
  <defs>
    <linearGradient id="gradient" x1="0%" y1="0%" x2="100%" y2="100%">
      <stop offset="0%" style="stop-color:#facc15;stop-opacity:1" />
      <stop offset="100%" style="stop-color:#ca8a04;stop-opacity:1" />
    </linearGradient>
    <linearGradient id="gradient2" x1="0%" y1="0%" x2="100%" y2="100%">
      <stop offset="0%" style="stop-color:#fef08a;stop-opacity:0.8" />
      <stop offset="100%" style="stop-color:#eab308;stop-opacity:0.8" />
    </linearGradient>
  </defs>
</svg>